<?xml version="1.0" encoding="utf-8"?>
<!-- Generator: Adobe Illustrator 28.1.0, SVG Export Plug-In . SVG Version: 6.00 Build 0)  -->
<svg version="1.1"
	 id="Capa_1" xmlns:inkscape="http://www.inkscape.org/namespaces/inkscape" xmlns:dc="http://purl.org/dc/elements/1.1/" xmlns:rdf="http://www.w3.org/1999/02/22-rdf-syntax-ns#" xmlns:svg="http://www.w3.org/2000/svg" xmlns:cc="http://creativecommons.org/ns#" xmlns:sodipodi="http://sodipodi.sourceforge.net/DTD/sodipodi-0.dtd" inkscape:version="0.48.4 r9939"
	 xmlns="http://www.w3.org/2000/svg" xmlns:xlink="http://www.w3.org/1999/xlink" x="0px" y="0px" viewBox="0 0 800.5 208.6"
	 style="enable-background:new 0 0 800.5 208.6;" xml:space="preserve">
<style type="text/css">
	.st0{fill:#1E68A2;}
	.st1{fill:#A71E23;}
</style>
<sodipodi:namedview  bordercolor="#666666" borderopacity="1" gridtolerance="10" guidetolerance="10" id="namedview63" inkscape:current-layer="Capa_1" inkscape:cx="400.2345" inkscape:cy="104.278" inkscape:pageopacity="0" inkscape:pageshadow="2" inkscape:window-height="1019" inkscape:window-maximized="1" inkscape:window-width="1920" inkscape:window-x="-9" inkscape:window-y="-9" inkscape:zoom="0.54468068" objecttolerance="10" pagecolor="#ffffff" showgrid="false">
	</sodipodi:namedview>
<g id="g51">
</g>
<g id="g53">
</g>
<g id="g55">
</g>
<g id="g57">
</g>
<g id="g59">
</g>
<g id="g61">
</g>
<g>
	<path class="st0" d="M186.3,64c-2.4,4.5-6.2,8.2-11.5,11c-5.3,2.8-12.1,4.3-20.3,4.3h-18.2v40.6h-16.4V19.8h34.6
		c7.7,0,14.2,1.3,19.5,4c5.3,2.6,9.3,6.2,12,10.7c2.6,4.5,4,9.6,4,15.1C189.9,54.7,188.7,59.5,186.3,64z M168.5,61.6
		c3.1-2.8,4.6-6.8,4.6-12c0-11-6.2-16.4-18.6-16.4h-18.2v32.7h18.2C160.7,65.9,165.4,64.5,168.5,61.6z"/>
	<path class="st0" d="M277.8,86.4h-60.7c0.5,6.3,2.8,11.4,7.1,15.3c4.2,3.8,9.4,5.8,15.6,5.8c8.8,0,15.1-3.7,18.7-11.1h17.7
		c-2.4,7.3-6.7,13.3-13,17.9c-6.3,4.7-14.1,7-23.4,7c-7.6,0-14.4-1.7-20.4-5.1c-6-3.4-10.7-8.2-14.1-14.4
		c-3.4-6.2-5.1-13.4-5.1-21.5c0-8.2,1.7-15.3,5-21.5c3.3-6.2,8-11,14-14.3c6-3.4,12.9-5,20.7-5c7.5,0,14.2,1.6,20,4.9
		c5.9,3.3,10.4,7.9,13.7,13.8c3.3,5.9,4.9,12.7,4.9,20.4C278.4,81.3,278.2,84,277.8,86.4z M261.3,73.1c-0.1-6.1-2.3-10.9-6.5-14.6
		c-4.2-3.6-9.5-5.5-15.7-5.5c-5.7,0-10.5,1.8-14.6,5.4c-4,3.6-6.4,8.5-7.2,14.6H261.3z"/>
	<path class="st0" d="M306.6,117.8c-4.9-2.3-8.9-5.3-11.7-9.2c-2.9-3.9-4.4-8.2-4.6-13h17c0.3,3.4,1.9,6.2,4.8,8.4
		c2.9,2.3,6.6,3.4,11,3.4c4.6,0,8.2-0.9,10.7-2.7c2.5-1.8,3.8-4.1,3.8-6.8c0-3-1.4-5.2-4.3-6.6c-2.8-1.4-7.3-3-13.5-4.8
		c-6-1.6-10.8-3.2-14.6-4.8c-3.7-1.5-7-3.9-9.7-7.1c-2.7-3.2-4.1-7.3-4.1-12.5c0-4.2,1.2-8.1,3.7-11.6c2.5-3.5,6.1-6.3,10.7-8.3
		c4.7-2,10-3,16.1-3c9,0,16.3,2.3,21.8,6.8c5.5,4.6,8.5,10.8,8.9,18.7h-16.4c-0.3-3.6-1.7-6.4-4.3-8.5c-2.6-2.1-6.1-3.2-10.5-3.2
		c-4.3,0-7.6,0.8-9.9,2.4c-2.3,1.6-3.5,3.8-3.5,6.5c0,2.1,0.8,3.9,2.3,5.3c1.5,1.4,3.4,2.6,5.6,3.4c2.2,0.8,5.5,1.9,9.8,3.1
		c5.8,1.5,10.5,3.1,14.2,4.7c3.7,1.6,6.9,3.9,9.6,7c2.7,3.1,4.1,7.2,4.2,12.2c0,4.5-1.2,8.6-3.7,12.1c-2.5,3.6-6,6.3-10.6,8.4
		c-4.6,2-9.9,3-16.1,3C317.1,121.2,311.5,120.1,306.6,117.8z"/>
	<path class="st0" d="M371,58.7c3.3-6.1,7.8-10.9,13.5-14.3c5.7-3.4,12-5.1,18.9-5.1c6.2,0,11.7,1.2,16.4,3.7
		c4.7,2.4,8.4,5.5,11.2,9.1V40.5h16.6v79.4H431v-11.8c-2.8,3.7-6.6,6.9-11.4,9.4c-4.8,2.5-10.3,3.7-16.4,3.7
		c-6.8,0-13.1-1.8-18.7-5.3c-5.7-3.5-10.2-8.4-13.5-14.7c-3.3-6.3-5-13.4-5-21.4C366,71.9,367.7,64.8,371,58.7z M427.6,65.9
		c-2.3-4-5.2-7.1-8.9-9.2c-3.7-2.1-7.6-3.2-11.8-3.2c-4.2,0-8.2,1-11.8,3.1c-3.7,2.1-6.6,5.1-8.9,9.1c-2.3,4-3.4,8.7-3.4,14.2
		c0,5.5,1.1,10.3,3.4,14.4c2.3,4.1,5.2,7.3,8.9,9.4c3.7,2.2,7.6,3.2,11.7,3.2c4.2,0,8.2-1.1,11.8-3.2c3.6-2.1,6.6-5.2,8.9-9.3
		c2.3-4.1,3.4-8.9,3.4-14.3C431,74.7,429.9,69.9,427.6,65.9z"/>
	<path class="st1" d="M497,43c4.8-2.5,10.2-3.7,16.3-3.7c6.9,0,13.2,1.7,18.9,5.1c5.7,3.4,10.2,8.2,13.5,14.3
		c3.3,6.1,4.9,13.2,4.9,21.2c0,8-1.6,15.1-4.9,21.4c-3.3,6.3-7.8,11.2-13.5,14.7c-5.7,3.5-12,5.3-18.9,5.3c-6.1,0-11.4-1.2-16.1-3.7
		c-4.7-2.4-8.6-5.5-11.5-9.1v49.3h-16.4V40.5h16.4v11.7C488.4,48.6,492.2,45.5,497,43z M530.5,65.7c-2.3-4-5.2-7-8.9-9.1
		c-3.7-2.1-7.7-3.1-11.9-3.1c-4.1,0-8,1.1-11.7,3.2c-3.7,2.1-6.7,5.2-8.9,9.2c-2.3,4-3.4,8.8-3.4,14.3c0,5.5,1.1,10.3,3.4,14.3
		c2.3,4.1,5.2,7.2,8.9,9.3c3.7,2.1,7.6,3.2,11.7,3.2c4.2,0,8.2-1.1,11.9-3.2c3.7-2.2,6.7-5.3,8.9-9.4c2.3-4.1,3.4-8.9,3.4-14.4
		C533.9,74.4,532.8,69.7,530.5,65.7z"/>
	<path class="st1" d="M566.4,58.7c3.3-6.1,7.8-10.9,13.5-14.3c5.7-3.4,12-5.1,18.9-5.1c6.2,0,11.7,1.2,16.4,3.7
		c4.7,2.4,8.4,5.5,11.2,9.1V40.5H643v79.4h-16.6v-11.8c-2.8,3.7-6.6,6.9-11.4,9.4c-4.8,2.5-10.3,3.7-16.4,3.7
		c-6.8,0-13.1-1.8-18.7-5.3c-5.7-3.5-10.2-8.4-13.5-14.7c-3.3-6.3-5-13.4-5-21.4C561.4,71.9,563.1,64.8,566.4,58.7z M623,65.9
		c-2.3-4-5.2-7.1-8.9-9.2c-3.7-2.1-7.6-3.2-11.8-3.2c-4.2,0-8.2,1-11.8,3.1c-3.7,2.1-6.6,5.1-8.9,9.1c-2.3,4-3.4,8.7-3.4,14.2
		c0,5.5,1.1,10.3,3.4,14.4c2.3,4.1,5.2,7.3,8.9,9.4c3.7,2.2,7.6,3.2,11.7,3.2c4.2,0,8.2-1.1,11.8-3.2c3.6-2.1,6.6-5.2,8.9-9.3
		c2.3-4.1,3.4-8.9,3.4-14.3C626.4,74.7,625.3,69.9,623,65.9z"/>
	<path class="st1" d="M681,13.3v106.6h-16.4V13.3H681z"/>
</g>
<g>
	<path class="st0" d="M145.4,191.4v-27.9h10.5c1.9,0,3.3,0.1,4.2,0.3c1.4,0.2,2.5,0.7,3.4,1.3c0.9,0.6,1.7,1.5,2.2,2.7
		c0.6,1.2,0.8,2.4,0.8,3.8c0,2.4-0.8,4.4-2.3,6c-1.5,1.6-4.2,2.5-8.2,2.5h-7.2v11.3H145.4z M149.1,176.7h7.2c2.4,0,4.1-0.4,5.1-1.3
		c1-0.9,1.5-2.1,1.5-3.7c0-1.2-0.3-2.2-0.9-3c-0.6-0.8-1.4-1.4-2.3-1.6c-0.6-0.2-1.8-0.2-3.4-0.2h-7.1V176.7z"/>
	<path class="st0" d="M184.2,188.9c-1.3,1.1-2.5,1.8-3.7,2.3c-1.2,0.4-2.4,0.7-3.8,0.7c-2.2,0-3.9-0.5-5.1-1.6
		c-1.2-1.1-1.8-2.5-1.8-4.2c0-1,0.2-1.9,0.7-2.7c0.5-0.8,1-1.5,1.8-2c0.7-0.5,1.6-0.9,2.5-1.1c0.7-0.2,1.7-0.3,3-0.5
		c2.8-0.3,4.8-0.7,6.1-1.2c0-0.5,0-0.8,0-0.9c0-1.4-0.3-2.4-1-3c-0.9-0.8-2.2-1.2-3.9-1.2c-1.6,0-2.8,0.3-3.6,0.8
		c-0.8,0.6-1.3,1.6-1.7,3l-3.3-0.5c0.3-1.4,0.8-2.6,1.5-3.5c0.7-0.9,1.7-1.6,3-2c1.3-0.5,2.8-0.7,4.6-0.7c1.7,0,3.1,0.2,4.2,0.6
		c1.1,0.4,1.9,0.9,2.4,1.5c0.5,0.6,0.9,1.4,1.1,2.3c0.1,0.6,0.2,1.6,0.2,3.2v4.6c0,3.2,0.1,5.2,0.2,6c0.1,0.8,0.4,1.7,0.9,2.4h-3.6
		C184.5,190.7,184.3,189.8,184.2,188.9z M183.9,181.2c-1.2,0.5-3.1,0.9-5.6,1.3c-1.4,0.2-2.4,0.4-3,0.7c-0.6,0.3-1,0.6-1.4,1.1
		c-0.3,0.5-0.5,1-0.5,1.6c0,0.9,0.3,1.7,1,2.3c0.7,0.6,1.7,0.9,3,0.9c1.3,0,2.5-0.3,3.5-0.9c1-0.6,1.8-1.4,2.3-2.4
		c0.4-0.8,0.6-1.9,0.6-3.4V181.2z"/>
	<path class="st0" d="M192.5,199.2l-0.4-3.2c0.7,0.2,1.4,0.3,2,0.3c0.8,0,1.4-0.1,1.8-0.4c0.5-0.3,0.8-0.6,1.1-1.1
		c0.2-0.3,0.6-1.2,1-2.6c0.1-0.2,0.2-0.5,0.3-0.8l-7.7-20.3h3.7l4.2,11.7c0.5,1.5,1,3,1.5,4.7c0.4-1.6,0.9-3.1,1.4-4.6l4.3-11.8h3.4
		l-7.7,20.6c-0.8,2.2-1.5,3.7-1.9,4.6c-0.6,1.1-1.3,2-2.1,2.5c-0.8,0.5-1.7,0.8-2.8,0.8C194,199.6,193.3,199.4,192.5,199.2z"/>
	<path class="st0" d="M212.1,191.4v-20.2h3.1v2.8c0.6-1,1.5-1.8,2.5-2.4c1.1-0.6,2.3-0.9,3.6-0.9c1.5,0,2.7,0.3,3.7,0.9
		c1,0.6,1.6,1.5,2,2.6c1.6-2.4,3.7-3.5,6.2-3.5c2,0,3.5,0.6,4.6,1.7c1.1,1.1,1.6,2.8,1.6,5.1v13.9h-3.4v-12.7c0-1.4-0.1-2.4-0.3-3
		c-0.2-0.6-0.6-1.1-1.2-1.5c-0.6-0.4-1.3-0.6-2.1-0.6c-1.4,0-2.6,0.5-3.5,1.4c-0.9,0.9-1.4,2.5-1.4,4.5v11.7h-3.4v-13.1
		c0-1.5-0.3-2.7-0.8-3.4c-0.6-0.8-1.5-1.1-2.7-1.1c-1,0-1.9,0.3-2.7,0.8c-0.8,0.5-1.4,1.3-1.8,2.2c-0.4,1-0.6,2.4-0.6,4.2v10.5
		H212.1z"/>
	<path class="st0" d="M258.4,184.9l3.5,0.4c-0.6,2.1-1.6,3.7-3.1,4.8c-1.5,1.1-3.4,1.7-5.8,1.7c-3,0-5.3-0.9-7-2.7
		c-1.7-1.8-2.6-4.4-2.6-7.7c0-3.4,0.9-6,2.6-7.9c1.8-1.9,4-2.8,6.8-2.8c2.7,0,4.9,0.9,6.6,2.8c1.7,1.8,2.6,4.4,2.6,7.8
		c0,0.2,0,0.5,0,0.9H247c0.1,2.2,0.8,3.9,1.9,5.1c1.1,1.2,2.5,1.8,4.2,1.8c1.3,0,2.3-0.3,3.2-1C257.2,187.4,257.9,186.3,258.4,184.9
		z M247.2,179.3h11.3c-0.2-1.7-0.6-3-1.3-3.8c-1.1-1.3-2.5-2-4.2-2c-1.6,0-2.9,0.5-4,1.6C247.9,176.2,247.3,177.6,247.2,179.3z"/>
	<path class="st0" d="M266.3,191.4v-20.2h3.1v2.9c1.5-2.2,3.6-3.3,6.4-3.3c1.2,0,2.3,0.2,3.4,0.7c1,0.4,1.8,1,2.3,1.7
		c0.5,0.7,0.9,1.6,1.1,2.5c0.1,0.6,0.2,1.7,0.2,3.3v12.4h-3.4v-12.3c0-1.4-0.1-2.4-0.4-3.1c-0.3-0.7-0.7-1.2-1.4-1.7
		c-0.7-0.4-1.5-0.6-2.4-0.6c-1.5,0-2.7,0.5-3.8,1.4c-1.1,0.9-1.6,2.7-1.6,5.3v11H266.3z"/>
	<path class="st0" d="M295.4,188.3l0.5,3c-1,0.2-1.8,0.3-2.6,0.3c-1.2,0-2.2-0.2-2.9-0.6c-0.7-0.4-1.2-0.9-1.4-1.6
		c-0.3-0.6-0.4-2-0.4-4v-11.6h-2.5v-2.7h2.5v-5l3.4-2.1v7.1h3.4v2.7H292v11.8c0,1,0.1,1.6,0.2,1.9c0.1,0.3,0.3,0.5,0.6,0.7
		c0.3,0.2,0.7,0.2,1.2,0.2C294.3,188.5,294.8,188.4,295.4,188.3z"/>
	<path class="st0" d="M297.4,185.4l3.4-0.5c0.2,1.4,0.7,2.4,1.6,3.1c0.9,0.7,2.1,1.1,3.6,1.1c1.6,0,2.7-0.3,3.5-1
		c0.8-0.6,1.1-1.4,1.1-2.3c0-0.8-0.3-1.4-1-1.8c-0.5-0.3-1.6-0.7-3.5-1.2c-2.5-0.6-4.3-1.2-5.2-1.6c-1-0.5-1.7-1.1-2.2-1.9
		c-0.5-0.8-0.8-1.7-0.8-2.7c0-0.9,0.2-1.7,0.6-2.5c0.4-0.8,1-1.4,1.7-1.9c0.5-0.4,1.3-0.7,2.2-1c0.9-0.3,1.9-0.4,3-0.4
		c1.6,0,3,0.2,4.2,0.7c1.2,0.5,2.1,1.1,2.7,1.9c0.6,0.8,1,1.8,1.2,3.1l-3.3,0.5c-0.2-1-0.6-1.9-1.3-2.4c-0.7-0.6-1.8-0.9-3.1-0.9
		c-1.6,0-2.7,0.3-3.4,0.8c-0.7,0.5-1,1.1-1,1.8c0,0.4,0.1,0.8,0.4,1.2c0.3,0.4,0.7,0.7,1.3,0.9c0.3,0.1,1.4,0.4,3,0.9
		c2.4,0.6,4.1,1.2,5.1,1.6c1,0.4,1.7,1,2.3,1.8c0.5,0.8,0.8,1.8,0.8,2.9c0,1.1-0.3,2.2-1,3.2c-0.7,1-1.6,1.8-2.9,2.3
		c-1.3,0.6-2.7,0.8-4.3,0.8c-2.6,0-4.6-0.5-6-1.6C298.7,189.1,297.8,187.5,297.4,185.4z"/>
	<path class="st0" d="M324.3,191.4l10.7-27.9h4l11.4,27.9h-4.2l-3.3-8.5h-11.7l-3.1,8.5H324.3z M332.4,179.9h9.5l-2.9-7.7
		c-0.9-2.3-1.5-4.3-2-5.8c-0.4,1.8-0.9,3.6-1.5,5.3L332.4,179.9z"/>
	<path class="st0" d="M353,191.4v-20.2h3.1v2.9c1.5-2.2,3.6-3.3,6.4-3.3c1.2,0,2.3,0.2,3.4,0.7c1,0.4,1.8,1,2.3,1.7
		c0.5,0.7,0.9,1.6,1.1,2.5c0.1,0.6,0.2,1.7,0.2,3.3v12.4H366v-12.3c0-1.4-0.1-2.4-0.4-3.1c-0.3-0.7-0.7-1.2-1.4-1.7
		c-0.7-0.4-1.5-0.6-2.4-0.6c-1.5,0-2.7,0.5-3.8,1.4c-1.1,0.9-1.6,2.7-1.6,5.3v11H353z"/>
	<path class="st0" d="M374.5,199.2l-0.4-3.2c0.7,0.2,1.4,0.3,2,0.3c0.8,0,1.4-0.1,1.8-0.4c0.5-0.3,0.8-0.6,1.1-1.1
		c0.2-0.3,0.6-1.2,1-2.6c0.1-0.2,0.2-0.5,0.3-0.8l-7.7-20.3h3.7l4.2,11.7c0.5,1.5,1,3,1.5,4.7c0.4-1.6,0.9-3.1,1.4-4.6l4.3-11.8h3.4
		l-7.7,20.6c-0.8,2.2-1.5,3.7-1.9,4.6c-0.6,1.1-1.3,2-2.1,2.5c-0.8,0.5-1.7,0.8-2.8,0.8C376,199.6,375.3,199.4,374.5,199.2z"/>
	<path class="st0" d="M397.9,191.4l-6.2-20.2h3.5l3.2,11.7l1.2,4.3c0.1-0.2,0.4-1.6,1-4.2l3.2-11.8h3.5l3,11.7l1,3.9l1.2-3.9
		l3.5-11.7h3.3l-6.3,20.2h-3.6l-3.2-12.1l-0.8-3.4l-4.1,15.5H397.9z"/>
	<path class="st0" d="M422.3,191.4v-27.9h3.4v10c1.6-1.9,3.6-2.8,6.1-2.8c1.5,0,2.8,0.3,3.9,0.9c1.1,0.6,1.9,1.4,2.4,2.4
		c0.5,1,0.7,2.6,0.7,4.5v12.8h-3.4v-12.8c0-1.7-0.4-3-1.1-3.7c-0.7-0.8-1.8-1.2-3.1-1.2c-1,0-2,0.3-2.9,0.8
		c-0.9,0.5-1.5,1.2-1.9,2.1c-0.4,0.9-0.6,2.1-0.6,3.7v11.1H422.3z"/>
	<path class="st0" d="M457.8,184.9l3.5,0.4c-0.6,2.1-1.6,3.7-3.1,4.8c-1.5,1.1-3.4,1.7-5.8,1.7c-3,0-5.3-0.9-7-2.7
		c-1.7-1.8-2.6-4.4-2.6-7.7c0-3.4,0.9-6,2.6-7.9c1.8-1.9,4-2.8,6.8-2.8c2.7,0,4.9,0.9,6.6,2.8c1.7,1.8,2.6,4.4,2.6,7.8
		c0,0.2,0,0.5,0,0.9h-15.1c0.1,2.2,0.8,3.9,1.9,5.1c1.1,1.2,2.5,1.8,4.2,1.8c1.3,0,2.3-0.3,3.2-1
		C456.6,187.4,457.3,186.3,457.8,184.9z M446.5,179.3h11.3c-0.2-1.7-0.6-3-1.3-3.8c-1.1-1.3-2.5-2-4.2-2c-1.6,0-2.9,0.5-4,1.6
		C447.2,176.2,446.7,177.6,446.5,179.3z"/>
	<path class="st0" d="M465.6,191.4v-20.2h3.1v3.1c0.8-1.4,1.5-2.4,2.2-2.8c0.7-0.5,1.4-0.7,2.2-0.7c1.2,0,2.3,0.4,3.5,1.1l-1.2,3.2
		c-0.8-0.5-1.7-0.7-2.5-0.7c-0.7,0-1.4,0.2-2,0.7c-0.6,0.5-1,1.1-1.3,1.9c-0.4,1.2-0.6,2.6-0.6,4v10.6H465.6z"/>
	<path class="st0" d="M492.4,184.9l3.5,0.4c-0.6,2.1-1.6,3.7-3.1,4.8c-1.5,1.1-3.4,1.7-5.8,1.7c-3,0-5.3-0.9-7-2.7
		c-1.7-1.8-2.6-4.4-2.6-7.7c0-3.4,0.9-6,2.6-7.9c1.8-1.9,4-2.8,6.8-2.8c2.7,0,4.9,0.9,6.6,2.8c1.7,1.8,2.6,4.4,2.6,7.8
		c0,0.2,0,0.5,0,0.9H481c0.1,2.2,0.8,3.9,1.9,5.1c1.1,1.2,2.5,1.8,4.2,1.8c1.3,0,2.3-0.3,3.2-1C491.2,187.4,491.9,186.3,492.4,184.9
		z M481.2,179.3h11.3c-0.2-1.7-0.6-3-1.3-3.8c-1.1-1.3-2.5-2-4.2-2c-1.6,0-2.9,0.5-4,1.6C481.9,176.2,481.3,177.6,481.2,179.3z"/>
	<path class="st0" d="M501.2,191.4v-3.9h3.9v3.9c0,1.4-0.3,2.6-0.8,3.5c-0.5,0.9-1.3,1.6-2.4,2l-1-1.5c0.7-0.3,1.3-0.8,1.6-1.4
		c0.3-0.6,0.5-1.5,0.6-2.7H501.2z"/>
	<path class="st0" d="M517.2,191.4l10.7-27.9h4l11.4,27.9h-4.2l-3.3-8.5h-11.7l-3.1,8.5H517.2z M525.2,179.9h9.5l-2.9-7.7
		c-0.9-2.3-1.5-4.3-2-5.8c-0.4,1.8-0.9,3.6-1.5,5.3L525.2,179.9z"/>
	<path class="st0" d="M545.8,191.4v-20.2h3.1v2.9c1.5-2.2,3.6-3.3,6.4-3.3c1.2,0,2.3,0.2,3.4,0.7c1,0.4,1.8,1,2.3,1.7
		c0.5,0.7,0.9,1.6,1.1,2.5c0.1,0.6,0.2,1.7,0.2,3.3v12.4h-3.4v-12.3c0-1.4-0.1-2.4-0.4-3.1c-0.3-0.7-0.7-1.2-1.4-1.7
		c-0.7-0.4-1.5-0.6-2.4-0.6c-1.5,0-2.7,0.5-3.8,1.4c-1.1,0.9-1.6,2.7-1.6,5.3v11H545.8z"/>
	<path class="st0" d="M567.3,199.2l-0.4-3.2c0.7,0.2,1.4,0.3,2,0.3c0.8,0,1.4-0.1,1.8-0.4c0.5-0.3,0.8-0.6,1.1-1.1
		c0.2-0.3,0.6-1.2,1-2.6c0.1-0.2,0.2-0.5,0.3-0.8l-7.7-20.3h3.7l4.2,11.7c0.5,1.5,1,3,1.5,4.7c0.4-1.6,0.9-3.1,1.4-4.6l4.3-11.8h3.4
		l-7.7,20.6c-0.8,2.2-1.5,3.7-1.9,4.6c-0.6,1.1-1.3,2-2.1,2.5c-0.8,0.5-1.7,0.8-2.8,0.8C568.9,199.6,568.1,199.4,567.3,199.2z"/>
	<path class="st0" d="M594.4,188.3l0.5,3c-1,0.2-1.8,0.3-2.6,0.3c-1.2,0-2.2-0.2-2.9-0.6s-1.2-0.9-1.4-1.6c-0.3-0.6-0.4-2-0.4-4
		v-11.6h-2.5v-2.7h2.5v-5l3.4-2.1v7.1h3.4v2.7H591v11.8c0,1,0.1,1.6,0.2,1.9c0.1,0.3,0.3,0.5,0.6,0.7c0.3,0.2,0.7,0.2,1.2,0.2
		C593.3,188.5,593.8,188.4,594.4,188.3z"/>
	<path class="st0" d="M597.8,167.4v-3.9h3.4v3.9H597.8z M597.8,191.4v-20.2h3.4v20.2H597.8z"/>
	<path class="st0" d="M606.5,191.4v-20.2h3.1v2.8c0.6-1,1.5-1.8,2.5-2.4c1.1-0.6,2.3-0.9,3.6-0.9c1.5,0,2.7,0.3,3.7,0.9
		c1,0.6,1.6,1.5,2,2.6c1.6-2.4,3.7-3.5,6.2-3.5c2,0,3.5,0.6,4.6,1.7c1.1,1.1,1.6,2.8,1.6,5.1v13.9h-3.4v-12.7c0-1.4-0.1-2.4-0.3-3
		c-0.2-0.6-0.6-1.1-1.2-1.5c-0.6-0.4-1.3-0.6-2.1-0.6c-1.4,0-2.6,0.5-3.5,1.4c-0.9,0.9-1.4,2.5-1.4,4.5v11.7h-3.4v-13.1
		c0-1.5-0.3-2.7-0.8-3.4c-0.6-0.8-1.5-1.1-2.7-1.1c-1,0-1.9,0.3-2.7,0.8c-0.8,0.5-1.4,1.3-1.8,2.2c-0.4,1-0.6,2.4-0.6,4.2v10.5
		H606.5z"/>
	<path class="st0" d="M652.8,184.9l3.5,0.4c-0.6,2.1-1.6,3.7-3.1,4.8c-1.5,1.1-3.4,1.7-5.8,1.7c-3,0-5.3-0.9-7-2.7
		c-1.7-1.8-2.6-4.4-2.6-7.7c0-3.4,0.9-6,2.6-7.9c1.8-1.9,4-2.8,6.8-2.8c2.7,0,4.9,0.9,6.6,2.8c1.7,1.8,2.6,4.4,2.6,7.8
		c0,0.2,0,0.5,0,0.9h-15.1c0.1,2.2,0.8,3.9,1.9,5.1c1.1,1.2,2.5,1.8,4.2,1.8c1.3,0,2.3-0.3,3.2-1
		C651.5,187.4,652.2,186.3,652.8,184.9z M641.5,179.3h11.3c-0.2-1.7-0.6-3-1.3-3.8c-1.1-1.3-2.5-2-4.2-2c-1.6,0-2.9,0.5-4,1.6
		C642.2,176.2,641.6,177.6,641.5,179.3z"/>
</g>
</svg>
